<svg width="20" height="20" viewBox="0 0 20 20" fill="none" xmlns="http://www.w3.org/2000/svg">
<path fill-rule="evenodd" clip-rule="evenodd" d="M6.90181 6.27681C7.14589 6.03273 7.54161 6.03273 7.78569 6.27681L11.0669 9.55806C11.311 9.80214 11.311 10.1979 11.0669 10.4419L7.78569 13.7232C7.54161 13.9673 7.14589 13.9673 6.90181 13.7232C6.65773 13.4791 6.65773 13.0834 6.90181 12.8393L9.74112 10L6.90181 7.16069C6.65773 6.91661 6.65773 6.52089 6.90181 6.27681Z" fill="#50B2C0"/>
<path fill-rule="evenodd" clip-rule="evenodd" d="M1.25 10C1.25 9.65482 1.52982 9.375 1.875 9.375H10.625C10.9702 9.375 11.25 9.65482 11.25 10C11.25 10.3452 10.9702 10.625 10.625 10.625H1.875C1.52982 10.625 1.25 10.3452 1.25 10Z" fill="#50B2C0"/>
<path fill-rule="evenodd" clip-rule="evenodd" d="M10 3.125C10 2.77982 10.2798 2.5 10.625 2.5H15C15.3315 2.5 15.6495 2.6317 15.8839 2.86612C16.1183 3.10054 16.25 3.41848 16.25 3.75V16.25C16.25 16.5815 16.1183 16.8995 15.8839 17.1339C15.6495 17.3683 15.3315 17.5 15 17.5H10.625C10.2798 17.5 10 17.2202 10 16.875C10 16.5298 10.2798 16.25 10.625 16.25H15L15 3.75L10.625 3.75C10.2798 3.75 10 3.47018 10 3.125Z" fill="#50B2C0"/>
</svg>
